<svg version="1.1" xmlns="http://www.w3.org/2000/svg" viewBox="0 0 108.55849650198343 103.79728701262911" width="108.55849650198343" height="103.79728701262911">
  <!-- svg-source:excalidraw -->
  
  <defs>
    <style class="style-fonts">
      @font-face {
        font-family: "Virgil";
        src: url("https://excalidraw.com/Virgil.woff2");
      }
      @font-face {
        font-family: "Cascadia";
        src: url("https://excalidraw.com/Cascadia.woff2");
      }
    </style>
  </defs>
  <rect x="0" y="0" width="108.55849650198343" height="103.79728701262911" fill="none"></rect><g stroke-linecap="round" transform="translate(10 9.999999999999972) rotate(0 44.279248250991714 41.89864350631457)"><path d="M7.03 18.04 C7.03 18.04, 7.03 18.04, 7.03 18.04 M7.03 18.04 C7.03 18.04, 7.03 18.04, 7.03 18.04 M4.18 24.96 C9.36 24.43, 11.73 17.23, 21.17 5.66 M4.29 25.95 C9.86 21.56, 13.8 17.26, 22.61 6.99 M1.74 35.79 C11.81 25, 21.93 13.27, 29.47 5.62 M3.42 34.41 C9 28.47, 14.68 20.05, 29.11 4.51 M3.16 43.1 C11.9 31.03, 25.81 14.09, 35.92 2.07 M2.4 43.12 C14.53 27.04, 27.93 10.97, 34.75 4.15 M1.57 45.44 C18.13 29.26, 33.19 13.35, 43.17 3.42 M3.12 46.55 C17.63 29.66, 32.53 14.14, 40.71 2.63 M5.04 51.87 C14.04 43.51, 22.51 32.74, 48.76 2.73 M4.4 51.61 C16.84 39.45, 28.27 24.21, 47.17 2.13 M4.74 59.13 C19.42 38.78, 35.74 21.01, 53.96 2.08 M3.82 58.16 C23.28 36.35, 42.23 12.92, 51.71 2.09 M5.31 59.44 C24.86 42.43, 41.5 21.29, 54.84 4.23 M5.53 62.3 C19.83 47.29, 34.44 30.29, 55.95 4.28 M6.46 65.21 C25.65 46.58, 43.12 26.59, 61.1 6.68 M7.55 64.48 C20.47 51.85, 30.23 38, 59.92 4.36 M9.92 67.61 C31.74 45.72, 51.48 20.46, 63.15 5.86 M12.15 67.52 C29.99 45.47, 50.26 23.68, 64.7 7.45 M14.45 72.2 C37.63 47.58, 56.67 21.49, 69.67 8.7 M14.52 69.73 C32.56 48.12, 51.5 27.04, 67.59 9.19 M15.43 72.86 C35.2 51.77, 53.46 29.59, 72.58 10.05 M17.85 74.16 C37.59 49.38, 59.64 24.68, 72.57 10.55 M19.1 75.58 C37.78 58.12, 54.2 37.94, 75.35 14.3 M21.23 75.96 C30.63 63.77, 42.17 51.35, 76.23 12.88 M22.29 76.89 C36.57 63.88, 49.56 48.31, 79.28 15.24 M22.81 78.15 C34.81 66.1, 45.86 51.68, 77.61 15.26 M27.95 82.24 C45.37 61.66, 62.55 39.22, 79.09 17.89 M27.03 81.47 C45.05 61.08, 61.04 41.63, 79.31 19.76 M30.81 82.07 C49.01 58.32, 67.11 38.18, 82.61 21.49 M31.71 81.92 C47.74 62.63, 62.98 45.09, 82.76 21.79 M34.4 81.76 C53 63.18, 66.75 48.99, 83.68 24.25 M34.75 82.09 C55.49 59.55, 73.88 39.35, 84.73 26.41 M38.57 82.95 C55.96 61.54, 75.58 43.54, 85.81 29.83 M39.14 83.96 C49.82 72.96, 58.64 61.71, 86.49 30.13 M43.84 85.69 C57.69 67.32, 72.78 51.32, 89.81 33.63 M44.89 84.46 C54.13 74.29, 63.07 63.78, 89.01 32.73 M49.69 84.28 C59.36 74.93, 65.73 63.03, 90.75 40.24 M50.9 84.78 C57.96 74.69, 68.31 63.3, 89.54 40.08 M58.79 80.45 C65.1 73.96, 72.9 66.28, 89.51 44.74 M56.73 80.94 C67.12 70.92, 75.58 61.59, 88.63 44.91 M64.77 78.71 C70.8 72.03, 73.4 69.3, 86.51 54.38 M65.94 78.63 C72.9 69.22, 81.22 61.06, 87.54 53.95 M24.83 79.66 C24.83 79.66, 24.83 79.66, 24.83 79.66 M24.83 79.66 C24.83 79.66, 24.83 79.66, 24.83 79.66 M33.52 80.28 C26.19 76.19, 18.67 70.29, 7.54 59.73 M32.95 81.01 C22.64 72.93, 13.1 64.32, 9.13 60.71 M39.03 84.45 C30.05 73.66, 22.04 64.48, 7.91 53.05 M40.64 82.17 C30.78 74.49, 23.1 66.52, 7.35 52.92 M46.21 82.59 C36.66 74.12, 25.94 63.7, 4.21 45.76 M47.87 82.83 C34.12 70.1, 18.58 57.6, 4.55 46.19 M51.67 81.59 C36.12 65.85, 18.39 51.92, 2.02 41.01 M51.85 80.92 C40.08 71.44, 28.07 60.35, 2.05 39.69 M57.62 79.32 C40.51 66.57, 26.18 53.74, 3.85 33.71 M55.76 80.88 C42.47 68.89, 27.02 56.19, 4.6 34.79 M59.62 77.26 C45.33 63.84, 28.3 51.03, 3.69 29.03 M60.14 77.66 C43.19 64.15, 25.5 48.04, 4.49 31.02 M64.79 76.04 C51.65 65.49, 38.51 53.47, 7.74 24.71 M64.63 77.73 C47.99 63.9, 32.35 48.4, 5.77 25.71 M67.67 74.52 C46.53 54.79, 22.63 35.8, 6.97 22.72 M69.37 75.61 C53.12 62.23, 38.68 50.14, 6.47 21.23 M75.32 73.53 C54.44 57.34, 37 41.82, 7.99 15.07 M73.71 75 C58.03 60.44, 41.21 45.51, 6.97 16.11 M74.45 70.22 C62.23 60.38, 49.28 48.71, 10.01 14.71 M76.85 70.62 C55.56 54.34, 36.93 37.28, 10.53 15.48 M79.32 67.75 C57 51.43, 38.83 32.53, 13.06 12.08 M77.36 67.31 C57.74 49.12, 35.98 31.18, 15.12 13 M78.87 65.66 C67.14 51.73, 50.04 38.73, 19.52 10.05 M79.83 63.83 C57.94 44.62, 34.84 25.31, 18.45 9.23 M81.28 59.64 C66.95 47.68, 52.83 34.93, 22.66 7.6 M83.01 60.11 C63.65 45.05, 45.59 28.44, 22.09 6.81 M82.93 56.52 C65.86 39.44, 46.86 23.31, 25.51 5.63 M84.33 57.61 C62.39 38.33, 42.23 21.13, 23.94 3.61 M85.71 54.64 C64.77 35.09, 46.74 20.58, 27.57 3.88 M86.77 53.19 C67 35.24, 47.8 19.55, 26.44 3.18 M88.93 50.96 C67.47 30.13, 47.2 13.61, 34.09 1.37 M86.32 49.64 C67.32 32.17, 49.08 15.66, 33.47 2.59 M85.18 42.66 C68.09 30, 50.87 12.65, 39.96 -0.49 M87.43 42.7 C73.49 31.37, 59.98 21.16, 37.78 0.96 M87.47 37.59 C75.58 28.31, 64.76 18.15, 43.38 1.67 M87.72 38.93 C70.67 23.35, 54.4 9.19, 44.21 0.51 M86.6 34.62 C80.16 26.33, 70.95 16.87, 50.46 1 M86.83 33.57 C72.91 22.39, 60.7 10.24, 49.85 -0.24 M90.51 29.38 C79.35 21.18, 72.48 16.5, 52.33 0.08 M89.45 29.64 C75.49 17.73, 60.43 4.91, 52.76 -1.32 M79.93 17.99 C73.91 11.15, 70.71 9.13, 65.89 5.11 M80.43 17.21 C77.74 13.03, 72.48 10.21, 66.21 4.31" stroke="#d9cdbf" stroke-width="0.5" fill="none"></path><path d="M27.35 2.81 C34.04 -0.75, 43 -1.28, 50.93 0.17 C58.85 1.62, 68.81 6.44, 74.88 11.51 C80.96 16.59, 85.46 23.47, 87.36 30.6 C89.26 37.72, 88.65 46.86, 86.28 54.27 C83.9 61.68, 79.28 70.08, 73.11 75.07 C66.94 80.05, 57.26 83.35, 49.25 84.16 C41.24 84.96, 32.27 83.36, 25.07 79.87 C17.86 76.38, 10.09 69.52, 6.02 63.22 C1.95 56.91, 0.46 49.58, 0.63 42.05 C0.8 34.52, 2.37 24.67, 7.02 18.04 C11.68 11.41, 24.54 4.72, 28.55 2.26 C32.56 -0.19, 30.88 2.46, 31.08 3.32 M41.07 0.09 C48.92 -1.29, 58.52 1.27, 65.71 4.78 C72.89 8.29, 80.62 14.47, 84.2 21.14 C87.78 27.81, 88.02 37.32, 87.19 44.8 C86.36 52.27, 83.89 59.86, 79.2 65.99 C74.52 72.11, 66.45 78.74, 59.07 81.53 C51.69 84.32, 42.43 84.24, 34.93 82.74 C27.43 81.24, 19.68 77.78, 14.09 72.53 C8.49 67.28, 3.09 58.63, 1.34 51.27 C-0.4 43.9, 0.92 35.43, 3.62 28.34 C6.33 21.25, 11.58 13.4, 17.57 8.74 C23.56 4.07, 35.72 1.82, 39.55 0.33 C43.37 -1.16, 40.41 -0.74, 40.53 -0.21" stroke="#000000" stroke-width="1" fill="none"></path></g><g stroke-linecap="round" transform="translate(28.742814177911896 22.571679981700044) rotate(0 26.29712531723112 26.29712531723122)"><path d="M0 0 C0 0, 0 0, 0 0 M0 0 C0 0, 0 0, 0 0 M0.08 5.8 C2.69 3.66, 4.52 2.16, 5.95 -0.76 M-1.02 6.83 C2.03 3.95, 3.06 1.25, 5.06 0.77 M1.07 9.12 C5.36 9.87, 2.1 8.04, 7.51 3.11 M1.1 11.68 C3.78 7.31, 6.35 2.65, 10.84 1.33 M-4.06 19.32 C2.76 14.59, 9.76 11.81, 16.71 3.8 M-1.83 17.8 C2.25 13.2, 9.43 8.26, 15.14 -1.51 M-0.56 26.17 C8.49 18.62, 13.06 14.88, 21.76 -0.85 M-1.08 25.28 C7.14 18.02, 9.43 12.91, 20.57 0.49 M3.91 28.53 C7.58 20.04, 16.65 13.6, 26.24 4.16 M1.98 28.88 C8.41 21.79, 11.79 14.01, 26.25 1.39 M-3.99 39.05 C14.72 23.4, 25.28 6.37, 32.45 -1.39 M1.73 36.2 C10.18 30.22, 14.82 18.4, 32.54 0.28 M-0.32 44.94 C15.23 30.53, 28.15 11.02, 40.11 -2.9 M-1.79 44.25 C12.06 26.82, 23.43 13, 35.46 2.07 M-1.05 49.51 C19.55 28.93, 33.39 8.79, 40.36 2.31 M-1.22 48.09 C11.9 34.5, 25.5 18.88, 43.55 1.77 M3.95 57.34 C14.96 39.76, 23.02 30.84, 47.29 2.24 M-1 53.13 C14.75 35.13, 31.57 16.76, 48.28 0.95 M5.65 51.85 C16.78 39.78, 25.7 30.37, 51.91 3.44 M8.26 51.83 C22.61 35.6, 37.13 19.98, 52.9 0.08 M10.83 53.83 C26.46 40.06, 36.74 28.91, 56.41 2.34 M11.59 53.34 C29.25 34.38, 46.55 16.83, 53.56 4.95 M13.86 55.33 C31.63 39.82, 44.11 24.53, 51.25 9.1 M16.37 52.56 C27.06 42.13, 33.29 33.8, 51.3 13.66 M24.29 53.51 C34.65 40.07, 41.54 32.31, 50.2 19.24 M22.76 55.04 C28.56 44.54, 36.03 37.34, 53.93 19.38 M28.87 51.82 C30.14 44.32, 38.2 38.87, 50.37 25.13 M28.57 53.37 C32.07 45.44, 39.19 41.01, 50.98 24.94 M31.01 57.31 C34.99 47.77, 47.72 38.78, 48.88 34.66 M31.67 55.52 C37.66 46.47, 48.2 38.17, 53.2 32.7 M36.81 49.81 C40.37 47.29, 51 38.87, 53.67 32.82 M38.83 53.25 C42.16 47.85, 45.27 43.85, 54.28 37.14 M45.61 51.99 C46.69 49.05, 50.95 45.98, 53.76 40.35 M43.89 54.24 C47.55 50.48, 50.53 45.53, 52.51 42.03 M48.96 53.76 C50.73 50.76, 51.02 51.03, 53.64 47.87 M49.26 52.78 C50.58 52.07, 51.22 50.36, 53.54 48.27 M0.37 52.92 C0.37 52.92, 0.37 52.92, 0.37 52.92 M0.37 52.92 C0.37 52.92, 0.37 52.92, 0.37 52.92 M6.24 52.75 C3.73 50.14, 4.4 50.05, 0.06 48.15 M6.18 52.19 C3.75 51.39, 2.34 50.08, -0.28 47.9 M10.73 54.25 C9.81 51.64, 5.47 49.72, -2.46 42.79 M11.15 53.83 C9.7 49.5, 6.45 46.74, 1.87 42.29 M16.14 53.59 C16.75 49.19, 12.96 42.51, -1.09 39.98 M17.6 51.05 C10.47 44.61, 2.49 41.66, 0.87 36.27 M27.74 50.44 C15.9 47.3, 7.44 43.1, -0.18 30.2 M23.18 51.07 C14.53 46.45, 5.89 39.66, -0.44 30.91 M28.59 53.4 C20.19 45.31, 8.92 33.81, -1.23 27.57 M29.05 54.49 C20.77 45.32, 12.73 37.95, -0.38 26.86 M36.94 55.83 C23 42.84, 11.48 29.49, 3.54 19 M35.6 53.77 C28.78 47.39, 19.58 37.51, 0.89 20.94 M40.9 53.32 C24.09 41.47, 8.33 23.83, -2.8 14.39 M44.02 53.88 C32.58 41.73, 21 34.44, -0.63 15.25 M45.84 54.45 C36.63 42.15, 27.26 28.73, -3.13 11.06 M46.64 54.08 C30.82 37.29, 10.24 18.68, 0.84 8.77 M51.7 51.92 C33.5 35, 12.82 22.04, -3.51 3.76 M55.09 50.19 C40.72 39.27, 23.77 26.87, -1.51 6.53 M52.44 49.2 C41.59 38.17, 33.02 24.49, 1.54 -2.79 M54.63 44.44 C38.21 31.8, 23.48 18.41, -1.45 -0.8 M52.16 37.67 C40.8 30.35, 30.35 24.14, 2.62 -2.02 M55.1 41.61 C45.84 32.71, 34.85 23.07, 4.69 -1.86 M51.94 35.3 C39.74 23.25, 25.57 8.61, 12.26 -0.06 M52.74 34.94 C40.58 27.18, 28.31 13.01, 13.8 -0.03 M53.96 29.25 C45.21 22.65, 29.73 5.95, 18.12 1.28 M53.07 31.81 C44.01 22.63, 36.09 15.6, 19.96 -1.29 M56.17 28.38 C47.62 16.66, 39.53 13.59, 24.42 1.86 M52.51 25.39 C43.12 15.21, 33.73 8.82, 22.79 -1.74 M51.1 17.25 C48.09 12.97, 42.23 12.24, 30.66 -0.26 M52.03 19.73 C44.55 12.68, 34.13 5.83, 29.06 0.07 M52.56 16.61 C44.76 11.04, 39.35 6.78, 39.15 1.84 M54.74 13.44 C45.32 9.31, 40.81 3.62, 35.1 0.86 M54.09 6.43 C48.36 6.88, 49.71 3.77, 45.03 0.7 M52.07 8.76 C49.6 7.97, 49.72 3.48, 44.05 0.62 M54.78 4.27 C51.47 2.82, 50.4 1.77, 48.84 0.51 M53.99 3.63 C51.32 2.49, 49.57 0.99, 49.57 0.23" stroke="#0a66c2" stroke-width="0.5" fill="none"></path><path d="M-3.27 -1.64 C19.33 3.41, 31.1 -1.33, 51.07 3.79 M-0.46 -0.47 C20.62 2.24, 38.31 1.66, 52.55 0.43 M56.52 -1.96 C49.9 13.14, 49.99 27.69, 54.17 51.26 M53.91 0.9 C52.32 20.98, 52.38 41.59, 52.49 50.86 M48.98 54.25 C33.02 51.63, 18.48 53.66, 0.45 52.04 M52.55 51.46 C33.27 52.95, 11.88 52.18, -1.08 52.86 M-0.05 56.2 C-1.74 41.46, -1.19 25.54, 0.69 -0.33 M-0.95 51.07 C-0.82 35.84, -1.45 19.49, 1.58 -1.91" stroke="#0a66c2" stroke-width="1" fill="none"></path></g><g stroke-linecap="round" transform="translate(37.84608906671019 31.242285794899516) rotate(0 4.037602659739832 4.0376026597399175)"><path d="M8.08 4.04 C8.08 4.27, 8.05 4.51, 8.01 4.74 C7.97 4.97, 7.91 5.2, 7.83 5.42 C7.75 5.64, 7.65 5.85, 7.53 6.06 C7.42 6.26, 7.28 6.45, 7.13 6.63 C6.98 6.81, 6.81 6.98, 6.63 7.13 C6.45 7.28, 6.26 7.42, 6.06 7.53 C5.85 7.65, 5.64 7.75, 5.42 7.83 C5.2 7.91, 4.97 7.97, 4.74 8.01 C4.51 8.05, 4.27 8.08, 4.04 8.08 C3.8 8.08, 3.57 8.05, 3.34 8.01 C3.11 7.97, 2.88 7.91, 2.66 7.83 C2.44 7.75, 2.22 7.65, 2.02 7.53 C1.82 7.42, 1.62 7.28, 1.44 7.13 C1.26 6.98, 1.09 6.81, 0.94 6.63 C0.79 6.45, 0.66 6.26, 0.54 6.06 C0.42 5.85, 0.32 5.64, 0.24 5.42 C0.16 5.2, 0.1 4.97, 0.06 4.74 C0.02 4.51, 0 4.27, 0 4.04 C0 3.8, 0.02 3.57, 0.06 3.34 C0.1 3.11, 0.16 2.88, 0.24 2.66 C0.32 2.44, 0.42 2.22, 0.54 2.02 C0.66 1.82, 0.79 1.62, 0.94 1.44 C1.09 1.26, 1.26 1.09, 1.44 0.94 C1.62 0.79, 1.82 0.66, 2.02 0.54 C2.22 0.42, 2.44 0.32, 2.66 0.24 C2.88 0.16, 3.11 0.1, 3.34 0.06 C3.57 0.02, 3.8 0, 4.04 0 C4.27 0, 4.51 0.02, 4.74 0.06 C4.97 0.1, 5.2 0.16, 5.42 0.24 C5.64 0.32, 5.85 0.42, 6.06 0.54 C6.26 0.66, 6.45 0.79, 6.63 0.94 C6.81 1.09, 6.98 1.26, 7.13 1.44 C7.28 1.62, 7.42 1.82, 7.53 2.02 C7.65 2.22, 7.75 2.44, 7.83 2.66 C7.91 2.88, 7.97 3.11, 8.01 3.34 C8.05 3.57, 8.06 3.92, 8.08 4.04 C8.09 4.15, 8.09 3.92, 8.08 4.04" stroke="none" stroke-width="0" fill="#ffffff"></path><path d="M8.08 4.04 C8.08 4.27, 8.05 4.51, 8.01 4.74 C7.97 4.97, 7.91 5.2, 7.83 5.42 C7.75 5.64, 7.65 5.85, 7.53 6.06 C7.42 6.26, 7.28 6.45, 7.13 6.63 C6.98 6.81, 6.81 6.98, 6.63 7.13 C6.45 7.28, 6.26 7.42, 6.06 7.53 C5.85 7.65, 5.64 7.75, 5.42 7.83 C5.2 7.91, 4.97 7.97, 4.74 8.01 C4.51 8.05, 4.27 8.08, 4.04 8.08 C3.8 8.08, 3.57 8.05, 3.34 8.01 C3.11 7.97, 2.88 7.91, 2.66 7.83 C2.44 7.75, 2.22 7.65, 2.02 7.53 C1.82 7.42, 1.62 7.28, 1.44 7.13 C1.26 6.98, 1.09 6.81, 0.94 6.63 C0.79 6.45, 0.66 6.26, 0.54 6.06 C0.42 5.85, 0.32 5.64, 0.24 5.42 C0.16 5.2, 0.1 4.97, 0.06 4.74 C0.02 4.51, 0 4.27, 0 4.04 C0 3.8, 0.02 3.57, 0.06 3.34 C0.1 3.11, 0.16 2.88, 0.24 2.66 C0.32 2.44, 0.42 2.22, 0.54 2.02 C0.66 1.82, 0.79 1.62, 0.94 1.44 C1.09 1.26, 1.26 1.09, 1.44 0.94 C1.62 0.79, 1.82 0.66, 2.02 0.54 C2.22 0.42, 2.44 0.32, 2.66 0.24 C2.88 0.16, 3.11 0.1, 3.34 0.06 C3.57 0.02, 3.8 0, 4.04 0 C4.27 0, 4.51 0.02, 4.74 0.06 C4.97 0.1, 5.2 0.16, 5.42 0.24 C5.64 0.32, 5.85 0.42, 6.06 0.54 C6.26 0.66, 6.45 0.79, 6.63 0.94 C6.81 1.09, 6.98 1.26, 7.13 1.44 C7.28 1.62, 7.42 1.82, 7.53 2.02 C7.65 2.22, 7.75 2.44, 7.83 2.66 C7.91 2.88, 7.97 3.11, 8.01 3.34 C8.05 3.57, 8.06 3.92, 8.08 4.04 C8.09 4.15, 8.09 3.92, 8.08 4.04" stroke="#0a66c2" stroke-width="1" fill="none"></path></g><g stroke-linecap="round"><g transform="translate(38.205855532379246 43.28306940528498) rotate(0 3.7279019740435615 10.412142429140872)" fill-rule="evenodd"><path d="M0 0 L0.19 18.35 L3.3 21.48 L6.48 19.95 L7.25 16.22 L7.75 4.92 L7.25 0.96 L5.83 -0.57 L0 0" stroke="none" stroke-width="0" fill="#ffffff" fill-rule="evenodd"></path><path d="M0 0 C0.03 3.06, -0.89 15.03, 0.19 18.35 C1.27 21.67, 5.31 22.84, 6.48 19.95 C7.66 17.05, 8.33 4.28, 7.25 0.96 C6.17 -2.37, 1.21 0.16, 0 0 M0 0 C0.03 3.06, -0.89 15.03, 0.19 18.35 C1.27 21.67, 5.31 22.84, 6.48 19.95 C7.66 17.05, 8.33 4.28, 7.25 0.96 C6.17 -2.37, 1.21 0.16, 0 0" stroke="#0a66c2" stroke-width="1" fill="none"></path></g></g><g stroke-linecap="round"><g transform="translate(50.296530964260455 51.99508847715103) rotate(0 10.63328188928881 1.7003517387139198)" fill-rule="evenodd"><path d="M0 0 L1.16 11.78 L3.96 13.28 L6.65 11.83 L6.83 0 L8.64 -2.64 L12.96 -3.77 L14.69 -1.82 L16.05 11.66 L18.48 13.41 L20.77 11.75 L20.94 -1.97 L19.94 -6.08 L18.31 -8.63 L13.53 -9.84 L9.06 -8.4 L6.78 -5.47 L5.87 -9.59 L3.19 -10 L0.56 -8.79 L0 0" stroke="none" stroke-width="0" fill="#ffffff" fill-rule="evenodd"></path><path d="M0 0 C0.19 1.96, 0.05 9.81, 1.16 11.78 C2.27 13.76, 5.7 13.79, 6.65 11.83 C7.59 9.86, 6.12 2.57, 6.83 0 C7.54 -2.57, 9.58 -3.28, 10.89 -3.59 C12.21 -3.89, 13.83 -4.36, 14.69 -1.82 C15.55 0.72, 15.03 9.4, 16.05 11.66 C17.06 13.93, 19.96 14.03, 20.77 11.75 C21.59 9.48, 21.35 1.43, 20.94 -1.97 C20.53 -5.36, 19.54 -7.32, 18.31 -8.63 C17.07 -9.95, 15.07 -9.88, 13.53 -9.84 C11.99 -9.8, 10.19 -9.13, 9.06 -8.4 C7.94 -7.67, 7.31 -5.27, 6.78 -5.47 C6.25 -5.67, 6.91 -9.03, 5.87 -9.59 C4.84 -10.14, 1.54 -10.39, 0.56 -8.79 C-0.42 -7.19, 0.09 -1.47, 0 0 M0 0 C0.19 1.96, 0.05 9.81, 1.16 11.78 C2.27 13.76, 5.7 13.79, 6.65 11.83 C7.59 9.86, 6.12 2.57, 6.83 0 C7.54 -2.57, 9.58 -3.28, 10.89 -3.59 C12.21 -3.89, 13.83 -4.36, 14.69 -1.82 C15.55 0.72, 15.03 9.4, 16.05 11.66 C17.06 13.93, 19.96 14.03, 20.77 11.75 C21.59 9.48, 21.35 1.43, 20.94 -1.97 C20.53 -5.36, 19.54 -7.32, 18.31 -8.63 C17.07 -9.95, 15.07 -9.88, 13.53 -9.84 C11.99 -9.8, 10.19 -9.13, 9.06 -8.4 C7.94 -7.67, 7.31 -5.27, 6.78 -5.47 C6.25 -5.67, 6.91 -9.03, 5.87 -9.59 C4.84 -10.14, 1.54 -10.39, 0.56 -8.79 C-0.42 -7.19, 0.09 -1.47, 0 0" stroke="#0a66c2" stroke-width="1" fill="none"></path></g></g></svg>