<svg version="1.1" xmlns="http://www.w3.org/2000/svg" viewBox="0 0 108.55849650198343 103.79728701262911" width="108.55849650198343" height="103.79728701262911">
  <!-- svg-source:excalidraw -->
  
  <defs>
    <style class="style-fonts">
      @font-face {
        font-family: "Virgil";
        src: url("https://excalidraw.com/Virgil.woff2");
      }
      @font-face {
        font-family: "Cascadia";
        src: url("https://excalidraw.com/Cascadia.woff2");
      }
    </style>
  </defs>
  <rect x="0" y="0" width="108.55849650198343" height="103.79728701262911" fill="none"></rect><g stroke-linecap="round" transform="translate(10 9.999999999999972) rotate(0 44.2792482509916 41.89864350631457)"><path d="M12.1 13.17 C12.1 13.17, 12.1 13.17, 12.1 13.17 M12.1 13.17 C12.1 13.17, 12.1 13.17, 12.1 13.17 M2.2 28.03 C8.93 20.9, 17.2 15.83, 20.65 6.74 M4.12 29.47 C10.91 22.11, 17.72 13.6, 21.26 8.46 M3.09 37.28 C10.61 26.89, 19.24 19.98, 33.6 0.67 M0.75 36.93 C12.39 25.49, 22.11 11.9, 32.67 2.86 M1.1 42.98 C7.49 36.04, 17.6 26.73, 37.74 4.89 M2.02 41.81 C12.2 32.41, 21.19 21.7, 35.68 2.7 M3.78 49.58 C16.12 35.34, 26.6 17.83, 42.06 2.34 M4.05 47.11 C13.5 35.32, 23.49 23.6, 41.87 3.83 M5.04 54.41 C19.2 34.93, 32.58 16.88, 48.17 2.3 M3.84 52.81 C18.8 35.38, 34.71 16.83, 46.84 4.62 M3.67 60.36 C16.17 47.28, 27.18 30.48, 49.89 5.98 M3.18 58.12 C14.07 47.94, 25.37 34.95, 51.26 3.07 M7.54 60.19 C25.01 40.21, 41.8 18.6, 56.2 4.84 M6.33 61.31 C20.35 45.77, 34.54 29.59, 57.28 2.74 M8.9 65.5 C29.81 41.25, 47.85 21.43, 60.49 2.79 M8.71 64.32 C29.02 43.18, 50.92 18.99, 61.17 4.49 M12.53 66.5 C27.34 50.14, 45.03 31.25, 66.67 6.25 M12.51 68.05 C26.54 52.73, 39.03 35.81, 64.95 8.11 M14.89 71.97 C35.57 47.74, 57.01 23.61, 69.05 7.29 M15.28 69.88 C30.35 54.58, 43.5 38.47, 67.6 8.99 M16.46 74.58 C31.22 59.61, 46.34 40.63, 72.7 13.53 M17.73 74.57 C29.35 60.2, 41 45.8, 70.95 11.66 M22.1 76.3 C38.41 55.75, 55.02 37.27, 77.1 13.75 M21.46 77.18 C36.1 58.2, 51.87 41.99, 74.71 12.88 M24.13 79.74 C42.38 54.58, 60.65 32.77, 77.25 15.51 M23.56 78.07 C37.55 63.2, 51.81 45.98, 79.05 16.86 M30.02 78.3 C42.05 62.76, 56.76 45.86, 82 20.29 M29.68 78.52 C48 58.53, 66.07 37.16, 80.35 19.98 M31.46 81.33 C44.83 66.63, 57.52 50.85, 83.09 24.59 M32.55 81.48 C46.99 64.41, 62.73 47.04, 81.69 23.4 M38.67 81.15 C54.12 62.6, 75.52 39.8, 82.87 26.09 M37.73 82.2 C56.36 61.55, 75.29 38.82, 83.97 26.82 M41.52 82.79 C51.05 71.05, 59.39 60.78, 84.7 31.73 M40.2 83.46 C54.81 69.07, 68.61 53.51, 85.82 32.14 M44.5 86.29 C55.68 71.89, 66.54 62.48, 88.59 35.37 M44.69 85.49 C58.87 67.66, 74.6 50.67, 88.61 34.63 M49.75 85.59 C65.64 67.35, 78.81 51.9, 93 38.68 M50.24 84.38 C60.58 73.07, 68.09 63.08, 91.72 37.43 M58.9 81.95 C67.79 69.67, 77.66 57.81, 87.87 44.23 M59.42 81.08 C68.11 69.33, 77.8 58.45, 89 46.17 M68.65 77.01 C74.28 71.23, 80.32 62.31, 88.17 54.34 M67.34 78.04 C72.71 71.97, 77.74 65.19, 87.76 53.41 M20.17 75.87 C20.17 75.87, 20.17 75.87, 20.17 75.87 M20.17 75.87 C20.17 75.87, 20.17 75.87, 20.17 75.87 M32.97 79.03 C21.69 74.2, 15.06 65.5, 5.13 56.65 M30.21 80.62 C25.49 74.28, 18.64 69.28, 3.88 57.93 M40.24 85.5 C32.52 75.43, 24.18 69.07, 3.53 49.53 M41.11 84.94 C33.39 76.68, 25.51 70.38, 2.74 50.24 M44.69 81.34 C31.66 71.38, 18.44 58.83, 3.3 43.36 M44.67 81.67 C29.59 68.34, 14.15 53.28, 3.39 45.28 M49.18 79.35 C33.14 63.47, 11.71 49.71, 3.34 37.97 M49.21 79.38 C32.5 65.49, 15.89 51.24, 2.77 38.37 M54.28 79.01 C36.69 64.61, 20.63 52.13, 0.99 34.35 M54.85 79.76 C35.12 62.48, 16.07 45.55, 1.31 32.55 M59.46 76.03 C37.58 60.97, 21.62 44.28, 3.36 27.65 M58.17 76.83 C37.41 58.54, 16.42 41.15, 3.7 29.11 M61.99 77.92 C43.85 60.17, 26.62 45.69, 6.7 28.19 M62.54 75.95 C48.5 65.04, 34.47 52.42, 5.69 26.19 M70.8 75.63 C47.06 55.38, 23.52 36.1, 9.78 23.69 M69.38 75.13 C55.85 64.25, 43.4 53.48, 8.95 22.54 M70.53 73.28 C56.17 59.55, 42.35 47.61, 10.54 20.88 M71.77 72.25 C48.97 53.43, 28.93 36.64, 9.07 18.73 M74.55 68.89 C56.13 54.4, 38.18 39.95, 13.44 14.5 M74.74 69.41 C58.71 56.5, 42.2 41.29, 12.44 15.65 M78.24 66.21 C58.99 53.19, 40.47 37.62, 12.6 11.54 M78.1 68.27 C53.62 45.63, 27.96 23.87, 12.77 12.44 M81.35 66.27 C55.93 44.57, 32.32 22.57, 15.67 8.26 M80.24 65.2 C59.81 46.3, 40.09 28.76, 16.42 8.91 M82.94 63.01 C67.77 48.15, 54.58 35.19, 22.43 6.46 M82.41 62.44 C62.62 45.03, 44.73 28.3, 20.44 7.48 M84.7 60.22 C65.34 40.98, 44.36 22.25, 24.71 6.45 M85.61 58.65 C69.88 45.84, 55.61 32.24, 23.9 5.68 M88.62 54.57 C76.19 44.3, 60.68 31.54, 28.48 1.95 M87.57 53.44 C70.92 40.48, 53.42 23.97, 29.46 4.63 M87.82 51.11 C68.8 34.73, 52.43 19.05, 30.23 2.46 M87.13 50.49 C74.04 37.76, 57.73 23.3, 31.16 0.94 M87.71 46.35 C74.71 34.23, 67.17 25.57, 36.63 -2.5 M88.75 44.17 C70.96 29.73, 53.68 16.11, 35.51 -1.46 M88.86 39.8 C76.19 30.47, 60.44 17.63, 42.87 0.19 M88.86 40.63 C75.01 27.8, 61.83 17.12, 41.29 -0.19 M88.1 37.01 C74.87 23.25, 57.94 7.77, 46.77 -0.29 M90.4 36.4 C80.5 27.37, 72.86 19.95, 49.09 -0.39 M84.88 25.16 C80.38 22.16, 71.81 16.62, 55.43 0.12 M84.6 25.6 C73.12 15.97, 61.72 4.45, 53.39 -0.35" stroke="#d9cdbf" stroke-width="0.5" fill="none"></path><path d="M33.54 1.79 C40.71 -0.84, 50.01 -0.57, 57.45 1.75 C64.89 4.08, 72.89 9.93, 78.18 15.71 C83.48 21.5, 88.1 29.04, 89.21 36.45 C90.31 43.86, 88.4 53.39, 84.79 60.17 C81.18 66.95, 74.58 73.09, 67.55 77.13 C60.52 81.17, 50.46 84.57, 42.61 84.41 C34.76 84.24, 27.04 80.44, 20.45 76.11 C13.86 71.79, 6.46 65.24, 3.07 58.45 C-0.32 51.67, -1.35 42.92, 0.12 35.41 C1.6 27.9, 5.82 19.2, 11.9 13.39 C17.98 7.59, 32.22 2.53, 36.59 0.6 C40.96 -1.33, 38.04 1.1, 38.13 1.8 M56.48 0.34 C64.04 1.37, 73.02 7.69, 78.2 13.37 C83.39 19.04, 86.43 26.87, 87.61 34.39 C88.79 41.91, 88.5 51.28, 85.26 58.49 C82.02 65.7, 74.86 73.4, 68.15 77.64 C61.44 81.89, 52.98 83.85, 45.01 83.97 C37.03 84.08, 27.05 82.34, 20.3 78.32 C13.56 74.31, 7.84 67.06, 4.52 59.88 C1.2 52.71, -0.67 42.81, 0.39 35.27 C1.44 27.74, 5.85 20.34, 10.85 14.66 C15.85 8.99, 22.92 3.36, 30.4 1.23 C37.89 -0.91, 51.6 1.59, 55.75 1.84 C59.9 2.09, 55.41 2.11, 55.28 2.75" stroke="#000000" stroke-width="1" fill="none"></path></g><g stroke-linecap="round"><g transform="translate(29.95284701997116 65.43833898467028) rotate(0 22.682648058370773 -13.500827156648214)" fill-rule="evenodd"><path d="M3.91 -27.08 C3.91 -27.08, 3.91 -27.08, 3.91 -27.08 M3.91 -27.08 C3.91 -27.08, 3.91 -27.08, 3.91 -27.08 M7.59 -25.21 C7.59 -25.21, 7.59 -25.21, 7.59 -25.21 M7.59 -25.21 C7.59 -25.21, 7.59 -25.21, 7.59 -25.21 M5.36 -16.54 C5.36 -16.54, 5.36 -16.54, 5.36 -16.54 M5.36 -16.54 C5.36 -16.54, 5.36 -16.54, 5.36 -16.54 M5.93 -18.05 C8.21 -19.59, 10.58 -20.17, 10.56 -23.88 M6.29 -17.51 C8.11 -19.29, 8.83 -20.85, 11.37 -23.48 M6.51 -12.51 C8.34 -13.97, 9.39 -15.22, 9.57 -14.73 M7.33 -12.15 C7.56 -13.37, 8.25 -14.49, 9.93 -15.1 M11.04 -15.37 C12.46 -17.01, 13.53 -20.67, 13.97 -21.23 M10.19 -16.03 C10.65 -17.42, 11.9 -19.05, 14.49 -21.91 M0.9 0.78 C0.9 0.78, 0.9 0.78, 0.9 0.78 M0.9 0.78 C0.9 0.78, 0.9 0.78, 0.9 0.78 M11.62 -7.68 C12.51 -9.07, 14.6 -13.25, 19.33 -20.17 M9.57 -10.32 C11.71 -11.13, 13 -13.85, 18.33 -19.95 M5.34 2.39 C5.91 0.91, 5.8 0.75, 6.68 -0.39 M5 2.18 C5.8 1.6, 5.74 1.2, 7.48 -0.26 M13.89 -6.44 C16.25 -5.57, 20.16 -15.06, 24.88 -19.6 M12.84 -4.37 C15.08 -9.45, 15.03 -12.58, 22.29 -20.02 M28.64 -25.34 C29.53 -24.66, 33.83 -28.64, 32.99 -31.52 M26.02 -23.59 C28.36 -26.03, 31.63 -27.09, 34.24 -32.18 M8.05 4.25 C21.12 -9.01, 27.72 -13.63, 41.01 -31.12 M9.7 1.93 C14.44 -3.59, 24.06 -12.71, 40.25 -29.36 M16.76 6.14 C24.52 -5.9, 29.72 -18.39, 42.55 -32.07 M15.54 3.66 C22.77 -7.78, 34.04 -20.2, 42.35 -30.24 M16.57 8.81 C28.28 -2.33, 33.94 -4.74, 45.2 -20.1 M17.43 6.01 C27.7 -3, 33.96 -15.46, 44.27 -25.42 M20.92 8.49 C25.41 -1.27, 32.5 -5.22, 44.76 -14.55 M21.59 6.81 C26.75 -0.28, 30.82 -4.12, 44.21 -17.9 M30.27 7.9 C29.65 -1.14, 36.36 -0.84, 46 -13.67 M27.35 4.11 C34.17 -1.36, 39.21 -7.32, 43.54 -14.04 M0 0 C0 0, 0 0, 0 0 M0 0 C0 0, 0 0, 0 0 M9.37 2.5 C8 1.72, 6.94 1.25, 5.2 -0.68 M8.44 1.91 C7.2 1.52, 6.76 0.62, 4.96 -0.79 M17.08 3.79 C13.98 4.97, 15.72 3.45, 11.12 -3.1 M16.75 4.98 C14.69 2.82, 12.17 1.36, 10.51 -2.97 M23.23 1.9 C21.08 0.88, 15.83 -1.16, 14.75 -4.9 M21.88 1.94 C18.37 0.08, 15.05 -3.42, 11.89 -5.38 M9.38 -7.74 C9.38 -7.74, 9.38 -7.74, 9.38 -7.74 M9.38 -7.74 C9.38 -7.74, 9.38 -7.74, 9.38 -7.74 M24.14 2.67 C19.1 -4.35, 20.55 -5.41, 4.93 -13.28 M26.29 0.44 C18.93 -4.84, 13.54 -8.18, 6.12 -16.41 M29.2 0.91 C26.55 -6.7, 18.75 -6.25, 1.87 -24.06 M31.22 0.74 C21.57 -7.92, 12.4 -15.5, 3.59 -20.84 M35.3 -1.46 C23.51 -10.82, 16.24 -20.93, 7.16 -27.07 M34.64 -0.74 C28.12 -7.67, 24.01 -12.79, 6.38 -26.38 M34.49 -7.32 C35.3 -6.5, 27.12 -8.35, 16.59 -18.56 M38.83 -2.61 C35.28 -9.51, 28.23 -10.7, 19.37 -19.51 M39.64 -4.39 C32.08 -13.96, 25.9 -16.77, 26.76 -16.22 M40.24 -5.83 C38.59 -11.59, 33.76 -15.77, 25.72 -19.85 M43.46 -7.74 C36.04 -14.14, 34.19 -23.41, 29.53 -28.09 M43.56 -9.31 C40.3 -11.97, 37.12 -17.84, 28.4 -26.09 M46.22 -11.04 C40.83 -18.33, 32.63 -22.45, 27.07 -28.77 M44.66 -14.38 C39.61 -19.06, 30.38 -26.1, 28.44 -29.4 M44.75 -15.84 C43.1 -24.79, 34.22 -29.18, 29.36 -35.21 M46.7 -19.13 C39.44 -24.18, 34.04 -29.52, 29.46 -30.33 M44.38 -24.52 C43.64 -25.3, 43.26 -26.78, 41.56 -27.61 M44.19 -25.12 C43.93 -25.38, 43.57 -25.68, 41.97 -27.19 M40.53 -27.97 C40.15 -28.15, 37.46 -31.02, 34.04 -31.6 M41.41 -27.56 C40.46 -28.45, 38.4 -29.96, 34.89 -33.34 M45.79 -29.56 C44.98 -30.19, 44.52 -30.45, 44.2 -30.72 M45.46 -29.42 C44.88 -29.57, 44.47 -30.09, 44.05 -30.57" stroke="#55acee" stroke-width="0.5" fill="none"></path><path d="M-2.07 -1.51 C10.76 4.9, 15.35 2.6, 18.23 3.97 M1.33 -0.04 C7.22 0.82, 12.26 4.83, 21.09 3.92 M20.39 5.98 C21.58 6.38, 25.35 1.13, 34.39 3 M20.44 4.82 C21.89 4.52, 26.18 2.62, 31.33 2.34 M33.24 1.98 C34.05 1.33, 36.57 -1.27, 39.17 -6.12 M32.25 1.25 C34.77 -0.9, 36.89 -2.58, 39.21 -4.18 M37.65 -4.64 C40.16 -7.07, 43.13 -10.92, 42.64 -17.37 M40.2 -4.13 C39.38 -7.44, 42.02 -11.61, 42.73 -15.01 M42.59 -16.17 C42.64 -18.01, 44.43 -23.19, 41.87 -22.75 M43.81 -15.05 C44.16 -17.72, 43.53 -21.1, 43.32 -24.39 M43.14 -23.42 C43.81 -24.52, 46.39 -26.06, 45.9 -27.35 M42.95 -24.02 C44.67 -25.75, 45.22 -26.16, 47.08 -28.42 M47.32 -28.91 C46.05 -26.82, 43.55 -26.07, 42.72 -26.62 M46.73 -27.86 C45.91 -27.62, 44.46 -27.37, 41.61 -26.28 M43.25 -26.04 C44.5 -28.38, 43.56 -28.21, 45.81 -31.15 M41.66 -26.55 C42.59 -27.7, 43.63 -27.93, 46.78 -30.4 M47 -30.73 C46.84 -30.95, 46.74 -30.98, 46.69 -31.11 M46.92 -30.75 C46.87 -30.89, 46.76 -31.07, 46.8 -31.18 M47.44 -31.16 C46.54 -30.98, 43.69 -30.74, 43.18 -29.22 M46.22 -31.16 C45.24 -29.76, 43.01 -29.43, 41.6 -28.06 M41.57 -28.25 C40.98 -29.64, 39.82 -30.89, 40.36 -31.13 M41.96 -28.24 C41.15 -29.08, 39.99 -30.73, 39.62 -30.68 M39.86 -30.05 C37.22 -30.97, 36.66 -32.5, 33.58 -31.39 M39.24 -31.27 C38.71 -30.89, 36.83 -32.11, 34.48 -32.22 M33.8 -33 C33.18 -31.13, 31.06 -28.92, 28.09 -29.94 M34.81 -31.97 C33.61 -31.83, 31.1 -30.58, 29.29 -28.83 M29.78 -29.47 C28.52 -27, 27.41 -25.11, 25.18 -24.24 M28.51 -29.17 C28.44 -28.51, 27.97 -27.43, 26.22 -24.06 M26.77 -24.12 C27.57 -22.23, 26.58 -20.54, 28.48 -19.94 M26.76 -23.88 C26.84 -22.48, 26.91 -21.1, 27.58 -19.16 M27.66 -19.04 C27.67 -18.79, 27.84 -18.56, 28.06 -18.58 M27.72 -19.14 C27.75 -18.9, 27.96 -18.81, 27.99 -18.51 M29.58 -19.24 C23.02 -20.08, 19.54 -20.17, 17.14 -20.29 M27.9 -19.22 C25.31 -19.37, 20.83 -18.5, 18.52 -19.52 M16.34 -21.71 C13.47 -25.56, 9.06 -23.36, 5.12 -25.34 M16.68 -18.74 C14.49 -22.48, 10.63 -24.83, 4.63 -28.03 M4.21 -27.43 C4.22 -27.44, 4.23 -27.43, 4.25 -27.45 M4.21 -27.43 C4.22 -27.43, 4.23 -27.44, 4.25 -27.45 M3.39 -28.78 C5.61 -25.21, 4.68 -25.61, 3.55 -18.79 M4.16 -27.19 C4.89 -25.52, 4.05 -24.92, 4.09 -20.76 M3.28 -19.82 C4.21 -19.98, 6.33 -19.46, 10.98 -15.4 M3.81 -19.58 C6.36 -18.01, 8.35 -17.7, 11.3 -15.83 M10.84 -14.84 C7.72 -15.37, 7.82 -16.74, 5.16 -17.07 M10.33 -15.41 C7.99 -15.84, 6.1 -17.03, 4.69 -17.33 M4.84 -17.53 C4.57 -17.69, 4.47 -17.75, 4.44 -18.08 M4.77 -17.54 C4.6 -17.74, 4.49 -17.82, 4.37 -17.98 M4.59 -18.36 C4.78 -17.22, 5 -16.35, 5 -13.82 M4.23 -18.29 C4.34 -17.41, 4.91 -16.23, 5.81 -13.95 M5.56 -13.95 C7.47 -13.34, 7.63 -12.2, 10.76 -10.8 M6.18 -14.21 C7.36 -13.46, 8.02 -12.39, 10.2 -10.02 M11.05 -11.01 C9.39 -11.19, 8.6 -11.55, 5.87 -10.5 M10.22 -9.91 C9.29 -10.74, 7.68 -10.61, 6.32 -10.9 M6.48 -11.05 C6.66 -10.88, 6.7 -10.82, 6.72 -10.81 M6.53 -11.01 C6.56 -10.96, 6.63 -10.91, 6.77 -10.79 M7.26 -10.87 C7.08 -9.51, 8.47 -8.99, 8.67 -8.03 M7.02 -10.92 C7.17 -9.84, 8.19 -9.5, 8.97 -7.31 M8.86 -7.72 C11.42 -7.05, 12.46 -5.95, 13.9 -4.24 M9.06 -7.45 C10.68 -6.57, 11.19 -6.22, 15.09 -4.7 M14.55 -4.31 C13.26 -5.36, 13.17 -2.98, 9.85 -1.64 M14.57 -5.04 C13.49 -3.78, 12.35 -2.91, 10.06 -2.25 M10.19 -3.74 C7.11 -2.61, 6.41 -1.75, 1.19 1.16 M10.99 -2.59 C6.45 -1.97, 2 -0.84, -0.71 0.55 M0 0 C0 0, 0 0, 0 0 M0 0 C0 0, 0 0, 0 0" stroke="#55acee" stroke-width="1" fill="none"></path></g></g></svg>